<svg xmlns="http://www.w3.org/2000/svg" viewBox="0 0 448 94" width="486" height="102">
	<style>
		tspan { white-space:pre }
		.shp0 { fill: #012f51 } 
		.shp1 { fill: #00b7ff } 
	</style>
	<path id="Layer" fill-rule="evenodd" class="shp0" d="M292.7 26.4C292.7 24.3 292.7 22.1 292.7 19.9C297.7 19.9 302.5 19.9 307.5 19.9C307.5 20.2 307.5 20.4 307.5 20.7C307.5 35.3 307.5 49.9 307.5 64.6C307.5 68.6 307.1 72.6 305.9 76.4C304.4 81.1 301.9 85.1 297.9 88.1C295.3 90 292.4 91.3 289.3 92.2C285 93.4 280.7 93.7 276.3 93.6C271.5 93.5 266.8 92.9 262.1 91.6C258.5 90.6 255.1 89.2 252.1 87C251.8 86.8 251.5 86.6 251.2 86.3C251.3 86.1 251.3 85.9 251.4 85.8C252.4 83.9 253.5 82 254.5 80.1C256 77.5 258.9 76.6 261.6 77.8C266.5 80.1 271.7 81.2 277.1 81.1C279.1 81.1 281.1 80.8 283 80.3C287.7 79 290.5 75.8 291.5 71.1C292 69 292 66.8 291.9 64.7C291.9 64.7 291.9 64.6 291.8 64.5C291.7 64.6 291.6 64.6 291.6 64.6C288.6 67.8 284.9 69.6 280.6 70.4C274.6 71.5 268.8 71 263.3 68.5C256.1 65.3 251.4 60 249.2 52.4C248.3 49.2 248.1 45.8 248.3 42.5C248.6 39.2 249.4 36 250.9 33C254.3 26.4 259.7 22.2 266.8 20.2C272.3 18.7 277.8 18.6 283.2 20.3C286.7 21.4 289.7 23.3 292.1 26.1C292.2 26.2 292.3 26.3 292.5 26.5C292.6 26.4 292.6 26.4 292.7 26.4ZM278.1 58.2C279.3 58.1 280.5 58 281.7 57.8C285.3 57.1 288.2 55.2 290.2 52.1C291.8 49.7 292.2 47 292.1 44.2C291.9 38.7 288.5 34.3 283.2 32.6C279.8 31.5 276.4 31.6 273 32.6C270.6 33.3 268.6 34.6 267 36.5C264.7 39.1 263.8 42.2 264 45.6C264.2 51.1 267 54.9 272.1 57C274 57.8 276 58.1 278.1 58.2ZM125.5 47.4C125.5 41.2 126.8 36.2 129.7 31.7C133.2 26.3 138.2 22.7 144.2 20.7C148.6 19.2 153.1 18.8 157.6 19.1C161.6 19.4 165.4 20.2 169 22C176.5 25.6 181.5 31.4 183.5 39.5C185.1 46 184.7 52.5 181.8 58.7C178.4 65.8 172.7 70.3 165.3 72.8C161.2 74.1 156.9 74.5 152.5 74.2C148.4 73.9 144.4 73 140.7 71.2C133.4 67.6 128.5 62 126.4 54.1C125.8 51.6 125.6 49.1 125.5 47.4ZM141.3 47.3C141.4 48 141.5 49.4 141.7 50.7C142.6 55 145 58.2 149 60.2C151.5 61.4 154.2 61.7 157 61.4C162.4 60.7 166 57.7 167.8 52.6C169.2 48.8 169.1 44.8 167.9 41C166.6 37 164 34.2 160.1 32.7C158.2 32 156.2 31.8 154.2 31.9C148.8 32.2 144.9 34.9 142.6 39.9C141.6 42 141.3 44.3 141.3 47.3ZM204.2 73.3C199 73.3 193.9 73.3 188.8 73.3C188.7 72.8 188.6 20.7 188.8 19.8C193.7 19.8 198.6 19.8 203.6 19.8C203.6 21.8 203.6 23.8 203.6 25.9C203.8 25.8 203.8 25.8 203.9 25.7C207.2 22.3 211.2 20.4 215.7 19.5C220 18.7 224.3 18.7 228.5 19.9C236 22.1 240.7 27 242.6 34.6C243.3 37.2 243.5 39.8 243.5 42.5C243.5 51 243.5 59.4 243.5 67.9C243.5 70.4 242.1 72.4 239.9 73.1C239.3 73.3 238.6 73.4 238 73.4C234.9 73.4 231.7 73.4 228.6 73.4C228.4 73.4 228.3 73.3 228 73.3C228 73 228 72.7 228 72.4C228 63.2 228 54.1 228 44.9C228 42.9 227.8 40.9 227.1 39C225.8 35.4 223.3 33.3 219.6 32.7C217 32.3 214.5 32.4 212 33.4C208.2 34.9 205.9 37.7 204.9 41.6C204.5 43.3 204.3 45 204.3 46.7C204.3 55.3 204.3 63.9 204.3 72.5C204.3 72.8 204.3 73.1 204.2 73.3ZM-0.1 68.1C-0.1 67.9 -0.1 67.8 0 67.6C1 65.5 1.9 63.4 2.8 61.3C3.7 59.2 5.7 58 7.9 58.2C8.5 58.3 9.1 58.5 9.7 58.7C12.7 59.9 15.7 60.8 18.8 61.3C22 61.8 25.3 61.9 28.6 61.2C29.7 61 30.7 60.6 31.6 60C33 59 33.6 57.7 33.5 56C33.5 55 33.1 54.2 32.3 53.7C31.7 53.3 31 52.9 30.3 52.7C28.4 52 26.4 51.6 24.4 51.3C20.2 50.6 16 49.9 11.9 48.6C8.7 47.6 6.1 45.8 4 43.3C2.6 41.7 1.8 39.7 1.5 37.5C1 34.6 1.1 31.6 2 28.8C3.2 25 5.5 22.2 8.7 20C11.7 18 15 16.9 18.7 16C23.1 15.2 27.5 15.2 31.9 15.7C35.9 16.2 39.9 17.1 43.7 18.7C44.6 19.1 45.4 19.6 46.3 20C46.5 20.1 46.7 20.3 46.9 20.4C46.9 20.6 46.8 20.7 46.8 20.8C45.9 23 45 25.2 44 27.3C43.3 28.8 42.2 29.9 40.6 30.3C39.5 30.6 38.4 30.5 37.4 30.1C35.3 29.3 33.1 28.7 30.9 28.4C27.6 27.9 24.4 27.8 21.2 28.6C19.9 28.9 18.8 29.4 17.8 30.3C16.6 31.2 16.1 32.4 16.3 33.9C16.5 35.3 17.2 36.3 18.4 36.8C19.5 37.3 20.6 37.8 21.8 38C24.6 38.7 27.5 39.2 30.4 39.7C32.9 40.2 35.4 40.5 37.8 41.2C41 42.1 43.7 43.9 45.8 46.5C47.2 48.2 48 50.2 48.3 52.4C48.8 55.2 48.8 58.1 47.9 60.9C46.7 64.5 44.6 67.3 41.5 69.4C38.7 71.4 35.5 72.6 32.2 73.3C28.2 74.2 24.2 74.4 20.1 74.1C15.1 73.7 10.3 72.7 5.6 70.9C3.9 70.3 2.2 69.5 0.7 68.5C0.4 68.4 0.2 68.2 -0.1 68.1ZM87.9 60C87.9 64.3 87.9 68.4 87.9 72.7C87.7 72.8 87.4 72.9 87.2 73C84.1 73.9 80.9 74.3 77.6 74.1C75.3 74 73.1 73.7 70.9 73C64.7 71 60.9 66.7 59.6 60.3C59.2 58.5 59.1 56.7 59.1 54.8C59.1 47.6 59.1 40.3 59.1 33.1C59.1 32.9 59.1 32.6 59.1 32.2C56.4 32.2 53.7 32.2 51 32.2C50.8 31.6 50.8 21.5 50.9 20.3C53.6 20.3 56.3 20.3 59.1 20.3C59.1 19.4 59.1 18.6 59.1 17.8C59.1 17 59.1 16.2 59.1 15.4C59.1 14.6 59.1 13.8 59.1 13C59.1 12.2 59.1 11.4 59.1 10.6C59.1 9.8 59.1 9 59.1 8.2C59.7 8 72.7 7.9 74.6 8.2C74.6 9 74.6 9.8 74.6 10.6C74.6 11.4 74.6 12.2 74.6 13C74.6 13.8 74.6 14.6 74.6 15.4C74.6 16.2 74.6 17 74.6 17.8C74.6 18.6 74.6 19.4 74.6 20.3C75.8 20.3 76.9 20.3 78 20.3C79.1 20.3 80.2 20.3 81.3 20.3C82.4 20.3 83.5 20.3 84.6 20.3C85.7 20.3 86.8 20.3 87.9 20.3C88 20.6 88 20.7 88 20.9C88 22.9 88 24.9 88 26.9C88 29.5 86.3 31.6 83.8 32.1C83.4 32.2 82.9 32.2 82.5 32.2C80.2 32.2 77.9 32.2 75.6 32.2C75.4 32.2 75.1 32.2 74.8 32.2C74.7 32.5 74.7 32.7 74.7 32.9C74.7 40.3 74.7 47.6 74.7 55C74.7 55.9 74.8 56.8 75.1 57.7C75.8 60.1 77.5 61.4 79.9 61.8C82.4 62.2 84.8 61.5 87.1 60.5C87.3 60.3 87.6 60.2 87.9 60ZM108 73.3C102.8 73.3 97.7 73.3 92.6 73.3C92.4 72.7 92.4 20.5 92.6 19.8C97.5 19.8 102.4 19.8 107.3 19.8C107.5 20.5 107.4 21.3 107.4 22C107.4 22.8 107.4 23.5 107.4 24.3C107.4 25 107.4 25.7 107.4 26.6C107.5 26.5 107.6 26.5 107.7 26.4C110.4 23 114 21 118.1 19.9C120.4 19.3 122.8 19 125.2 19C125.3 19 125.5 19 125.7 19C125.7 19.3 125.7 19.6 125.7 19.8C125.7 23 125.6 26.3 125.7 29.5C125.7 31.5 124.1 33.1 122 33.1C120 33.1 118.1 33.4 116.2 34.1C112 35.7 109.5 38.6 108.5 42.9C108.1 44.7 107.9 46.5 107.9 48.3C107.9 56.3 107.9 64.4 107.9 72.4C107.9 72.7 107.9 73 108 73.3Z"/>
	<path id="Layer" fill-rule="evenodd" class="shp1" d="M446 69.7C446 72.3 443.9 74.9 440.8 74.9C439.6 74.9 438.5 74.9 437.3 74.9C437.1 74.9 436.9 74.8 436.6 74.8C436.6 74.5 436.6 74.2 436.6 73.9C436.6 64.1 436.6 54.2 436.6 44.4C436.6 42 436.4 39.7 435.6 37.5C434 33 430.8 30.4 426.1 29.6C423.2 29.1 420.3 29.2 417.5 30.1C412.7 31.5 409.7 34.8 408.1 39.4C407.2 41.8 407 44.3 407 46.9C407 55.8 407 64.8 407 73.8C407 74.1 407 74.4 407 74.7C403.8 74.7 400.8 74.7 397.6 74.7C397.6 74.4 397.6 74.1 397.6 73.8C397.6 64.1 397.6 54.4 397.6 44.7C397.6 42.2 397.4 39.8 396.6 37.5C395.1 32.8 391.8 30.1 387 29.4C384.2 28.9 381.3 29 378.5 29.9C373.6 31.4 370.5 34.8 369 39.6C368.3 41.8 368.1 44 368.1 46.3C368.1 55.5 368.1 64.6 368.1 73.7C368.1 74 368.1 74.3 368.1 74.6C365 74.6 362 74.6 358.9 74.6C358.9 74.1 358.8 73.5 358.8 73C358.8 71.4 358.8 69.8 358.8 68.2C358.8 67.9 358.8 67.7 358.8 67.3C358.5 67.5 358.4 67.6 358.3 67.7C354.4 71.9 349.4 74.3 343.7 74.9C338.1 75.5 332.7 74.7 327.6 72.1C320.6 68.5 316.2 62.7 314.4 55C312.9 48.7 313.2 42.4 315.7 36.4C319.2 28.1 325.5 23 334.3 21.1C339.1 20.1 343.8 20.3 348.5 21.7C352.3 22.8 355.5 24.8 358.2 27.6C358.4 27.8 358.5 28 358.6 28.1C358.7 28.1 358.7 28 358.8 28C358.8 18.7 358.8 9.3 358.8 -0.1C359.1 -0.2 359.3 -0.2 359.5 -0.2C360.8 -0.2 362.1 -0.2 363.4 -0.2C366.1 -0.2 368.2 2 368.2 4.6C368.2 11.9 368.2 19.2 368.2 26.5C368.2 26.8 368.2 27.1 368.2 27.5C368.4 27.3 368.5 27.3 368.6 27.2C371.7 24 375.5 22.1 379.9 21.2C384.1 20.3 388.4 20.4 392.6 21.5C397.3 22.8 401.1 25.4 403.7 29.7C403.8 29.7 403.8 29.8 403.9 29.9C403.9 29.9 403.9 29.9 404 30C404.1 29.9 404.2 29.8 404.3 29.7C407.8 25.1 412.4 22.4 418 21.2C422.5 20.3 426.9 20.3 431.3 21.5C438.4 23.4 443 28 445 35.1C445.7 37.6 446 40.1 446 42.7C446.1 51.7 446 60.7 446 69.7ZM358.8 47.7C358.7 45.6 358.4 43.6 357.9 41.8C356.3 36.5 353 32.6 347.8 30.5C344.5 29.2 341.1 28.9 337.6 29.5C332.2 30.4 328.1 33.2 325.4 38.1C322.3 43.7 322.2 51.7 325.1 57.4C327.3 61.6 330.5 64.4 335 65.9C337.9 66.9 340.9 67.1 344 66.6C349.4 65.7 353.6 62.9 356.3 58.1C358.2 54.8 358.9 51.2 358.8 47.7Z"/>
</svg>
